<svg width="244" height="158" viewBox="0 0 244 158" fill="none" xmlns="http://www.w3.org/2000/svg">
<path d="M23.33 142.17L20.39 138.06C18.57 138.88 16.42 139.32 14 139.32C5.04 139.32 0 133.25 0 124.41C0 115.57 5.04 109.5 14 109.5C22.96 109.5 28.04 115.57 28.04 124.41C28.04 129.3 26.49 133.33 23.6 135.94L28.04 142.17H23.32H23.33ZM17.66 134.19L12.07 126.29H16.79L20.72 131.83C21.99 130.08 22.66 127.59 22.66 124.42C22.66 117.74 19.72 114.03 14.01 114.03C8.3 114.03 5.4 117.74 5.4 124.42C5.4 131.1 8.34 134.81 14.01 134.81C15.36 134.81 16.59 134.61 17.66 134.2V134.19Z" fill="#89C540"/>
<path d="M29.99 131.78V117.89H35.11V130.76C35.11 133.61 36.1 135.04 38.6 135.04C41.3 135.04 43.04 133.04 43.04 129.62V117.89H48.16V138.91H43.28V135.49C42.17 137.73 40.34 139.32 36.97 139.32C32.29 139.32 29.99 136.88 29.99 131.78Z" fill="#89C540"/>
<path d="M50.1001 132.96C50.1001 129.74 51.9601 127.17 57.1201 126.77L61.2901 126.4C63.3501 126.2 63.9501 125.63 63.9501 124.53C63.9501 122.45 62.7201 121.23 60.1801 121.23C57.8001 121.23 56.4901 122.29 56.2901 124.53H51.2101C51.2101 120.25 53.8301 117.48 60.1401 117.48C66.4501 117.48 69.0601 120.25 69.0601 124.53V133.53C69.0601 136.38 69.3001 138.21 69.6901 138.91H65.0501C64.4601 138.14 64.1801 137.28 64.1801 135.65C63.0301 138.05 60.9701 139.32 57.4801 139.32C52.6801 139.32 50.1001 136.84 50.1001 132.97V132.96ZM63.9401 130.19V128.72C63.5801 129.17 62.6301 129.41 61.2401 129.54L58.8201 129.74C56.2401 129.99 55.2101 131.08 55.2101 132.59C55.2101 134.46 56.3601 135.73 58.9801 135.73C62.1501 135.73 63.9401 133.24 63.9401 130.19Z" fill="#89C540"/>
<path d="M84.84 138.91V126.04C84.84 123.19 83.85 121.76 81.35 121.76C78.65 121.76 76.91 123.76 76.91 127.18V138.91H71.79V117.89H76.67V121.31C77.78 119.07 79.61 117.48 82.94 117.48C87.62 117.48 89.96 119.92 89.96 125.02V138.91H84.84Z" fill="#89C540"/>
<path d="M94.0401 133V121.64H90.8301V117.89H94.0401V111.53H99.1601V117.89H103.6V121.64H99.1601V133.21C99.1601 134.84 99.8301 135.41 101.46 135.41L103.6 135.37V138.91C102.77 138.99 101.14 139.11 100.23 139.11C95.5901 139.11 94.0401 137.64 94.0401 133Z" fill="#89C540"/>
<path d="M105.5 131.78V117.89H110.62V130.76C110.62 133.61 111.61 135.04 114.11 135.04C116.81 135.04 118.55 133.04 118.55 129.62V117.89H123.67V138.91H118.79V135.49C117.68 137.73 115.85 139.32 112.48 139.32C107.8 139.32 105.5 136.88 105.5 131.78Z" fill="#89C540"/>
<path d="M149.72 138.91V125.87C149.72 123.06 148.81 121.76 146.82 121.76C144.68 121.76 142.97 123.59 142.97 127.02V138.91H138.01V125.87C138.01 123.06 137.1 121.76 135.15 121.76C133.01 121.76 131.3 123.59 131.3 127.02V138.91H126.38V117.89H131.26V121.31C132.25 119.07 134 117.48 136.81 117.48C139.78 117.48 141.65 118.78 142.48 121.43C143.51 118.99 145.53 117.48 148.35 117.48C152.56 117.48 154.62 119.92 154.62 125.02V138.91H149.7H149.72Z" fill="#89C540"/>
<path d="M156.58 129.58H161.81C162.25 133.41 163.95 135.16 168.36 135.16C172.77 135.16 174.51 133.29 174.51 130.6C174.51 128.6 173.44 127.3 169.12 126.65L165.51 126.12C159.6 125.26 157.3 123.15 157.3 118.42C157.3 113.21 160.91 109.5 168.25 109.5C175.59 109.5 179.2 113.17 179.2 118.83H174.08C173.72 115.41 171.9 113.66 168.13 113.66C164.36 113.66 162.7 115.45 162.7 118.1C162.7 120.1 163.61 121.12 167.38 121.64L170.99 122.17C176.74 123.03 179.92 125.27 179.92 130.28C179.92 135.7 176.11 139.32 168.26 139.32C160.41 139.32 156.6 135.78 156.6 129.58H156.58Z" fill="#89C540"/>
<path d="M182.12 143.14H184.18C186.56 143.14 187.95 141.96 187.95 140C187.95 139.39 187.83 138.7 187.55 137.96L180.25 117.88H185.61L190.93 134.83L196.24 117.88H201.6L194.3 137.96C191.84 144.76 189.14 146.88 184.15 146.88H182.13V143.13L182.12 143.14Z" fill="#89C540"/>
<path d="M215.79 138.91V126.04C215.79 123.19 214.8 121.76 212.3 121.76C209.6 121.76 207.86 123.76 207.86 127.18V138.91H202.74V117.89H207.62V121.31C208.73 119.07 210.55 117.48 213.89 117.48C218.57 117.48 220.91 119.92 220.91 125.02V138.91H215.79Z" fill="#89C540"/>
<path d="M237.88 138.91L231.89 129.87L228.76 133.05V138.92H223.64V109.92H228.76V127.07L237.45 117.9H243.4L235.35 126.21L243.8 138.92H237.89L237.88 138.91Z" fill="#89C540"/>
<path d="M35.53 153.32C35.53 153.19 35.54 153.05 35.55 152.91H36.52C36.52 154.26 37.14 154.93 38.65 154.93C40.16 154.93 41.18 154.28 41.18 152.97C41.18 152.26 40.82 151.93 39.61 151.75L38.34 151.56C36.98 151.35 36.37 150.77 36.37 149.65C36.37 147.9 37.7 146.88 39.8 146.88C41.66 146.88 42.63 147.76 42.63 149.25C42.63 149.36 42.63 149.47 42.62 149.58H41.68C41.68 148.35 41.09 147.68 39.71 147.68C38.43 147.68 37.42 148.27 37.42 149.52C37.42 150.26 37.8 150.56 38.81 150.72L40.08 150.91C41.47 151.12 42.23 151.67 42.23 152.87C42.23 154.68 40.91 155.74 38.56 155.74C36.58 155.74 35.53 154.92 35.53 153.33V153.32Z" fill="#89C540"/>
<path d="M49.9701 155.6L50.6701 151.61C50.6901 151.45 50.7101 151.28 50.7101 151.14C50.7101 150.51 50.4401 150.05 49.7401 150.05C48.9001 150.05 48.1801 150.73 47.9701 151.97L47.33 155.6H46.3701L47.0601 151.61C47.1001 151.44 47.1101 151.27 47.1101 151.14C47.1101 150.52 46.8401 150.05 46.1501 150.05C45.3201 150.05 44.6101 150.73 44.4001 151.97L43.7701 155.6H42.8L43.8901 149.35H44.8501L44.6701 150.36C45.0401 149.69 45.7201 149.23 46.4501 149.23C47.4301 149.23 47.9501 149.73 48.1001 150.49C48.5401 149.67 49.2401 149.23 50.0401 149.23C51.0801 149.23 51.7201 149.86 51.7201 150.92C51.7201 151.09 51.7101 151.27 51.6701 151.46L50.94 155.59H49.9701V155.6Z" fill="#89C540"/>
<path d="M52.28 154.03C52.28 152.82 52.99 152.23 54.45 152.09L55.96 151.97C56.66 151.91 57.11 151.73 57.11 151.03C57.11 150.36 56.59 149.96 55.74 149.96C54.76 149.96 54.18 150.38 54.05 151.25H53.08C53.18 149.98 54.07 149.23 55.81 149.23C57.18 149.23 58.1 149.82 58.1 150.95C58.1 151.08 58.09 151.23 58.08 151.35L57.61 154C57.51 154.52 57.46 154.92 57.46 155.2C57.46 155.38 57.48 155.51 57.52 155.6H56.64C56.54 155.45 56.51 155.26 56.51 155.07C56.51 154.92 56.52 154.76 56.56 154.56C56.09 155.31 55.37 155.72 54.3 155.72C53.11 155.72 52.29 155.1 52.29 154.03H52.28ZM56.78 153L56.9 152.26C56.73 152.47 56.37 152.56 55.84 152.61L54.63 152.72C53.7 152.79 53.29 153.22 53.29 153.94C53.29 154.59 53.79 155.02 54.58 155.02C55.79 155.02 56.59 154.17 56.78 153Z" fill="#89C540"/>
<path d="M58.6101 155.6L59.7001 149.35H60.6601L60.4301 150.68C60.9301 149.63 61.5701 149.29 62.4001 149.29C62.5701 149.29 62.9001 149.31 63.0701 149.35L62.9301 150.22L62.2401 150.2C61.2101 150.2 60.4401 150.93 60.1701 152.45L59.6201 155.6H58.6201H58.6101Z" fill="#89C540"/>
<path d="M63.6101 154.62C63.6101 154.47 63.62 154.32 63.66 154.15L64.3701 150.08H63.3L63.4201 149.35H64.5001L64.83 147.46H65.83L65.4901 149.35H66.9901L66.8701 150.08H65.3701L64.6401 154.17C64.6201 154.27 64.6201 154.36 64.6201 154.44C64.6201 154.83 64.86 154.92 65.41 154.92L66.0301 154.9L65.91 155.6C65.66 155.62 65.3801 155.66 65.1501 155.66C64.1301 155.66 63.6101 155.41 63.6101 154.62Z" fill="#89C540"/>
<path d="M66.77 153.16C66.77 151.01 67.96 149.24 70.18 149.24C72 149.24 72.71 150.57 72.71 151.81C72.71 152.16 72.66 152.46 72.61 152.64H67.78C67.74 152.85 67.74 153.03 67.74 153.2C67.74 154.4 68.37 155.03 69.41 155.03C70.38 155.03 71.08 154.51 71.44 153.71H72.35C71.94 154.96 70.95 155.73 69.35 155.73C67.75 155.73 66.76 154.72 66.76 153.16H66.77ZM67.9 151.96H71.72C71.73 151.88 71.73 151.8 71.73 151.72C71.73 150.63 71.14 149.94 70.13 149.94C69.05 149.94 68.17 150.61 67.89 151.96H67.9Z" fill="#89C540"/>
<path d="M73.1599 155.6L74.2499 149.35H75.2099L74.9799 150.68C75.4799 149.63 76.1199 149.29 76.9499 149.29C77.1199 149.29 77.4499 149.31 77.6199 149.35L77.4699 150.22L76.7799 150.2C75.7499 150.2 74.9799 150.93 74.7099 152.45L74.1699 155.6H73.1699H73.1599Z" fill="#89C540"/>
<path d="M80.5 154C80.5 153.9 80.51 153.81 80.52 153.71H81.43C81.43 154.61 81.89 155.04 82.95 155.04C84.08 155.04 84.69 154.57 84.69 153.79C84.69 153.26 84.34 153.02 83.69 152.92L82.69 152.76C81.76 152.63 81.14 152.19 81.14 151.23C81.14 149.9 82.22 149.23 83.78 149.23C85.04 149.23 85.97 149.7 85.97 150.88C85.97 150.97 85.97 151.06 85.96 151.16H85.05C85.05 150.43 84.81 149.93 83.69 149.93C82.79 149.93 82.14 150.27 82.14 151.16C82.14 151.69 82.47 151.87 82.95 151.95L83.97 152.11C85.05 152.27 85.7 152.73 85.7 153.73C85.7 154.92 84.72 155.73 82.87 155.73C81.25 155.73 80.5 155.02 80.5 154Z" fill="#89C540"/>
<path d="M85.86 157.25H86.38C87.03 157.25 87.59 156.85 88.1 155.94L86.67 149.36H87.66L88.7 154.77L91.65 149.36H92.74L89.06 155.82C88.1 157.49 87.39 157.97 86.28 157.97H85.72L85.85 157.24L85.86 157.25Z" fill="#89C540"/>
<path d="M92.1799 154C92.1799 153.9 92.1899 153.81 92.1999 153.71H93.1099C93.1099 154.61 93.5699 155.04 94.6299 155.04C95.7599 155.04 96.3699 154.57 96.3699 153.79C96.3699 153.26 96.0199 153.02 95.3699 152.92L94.3699 152.76C93.4399 152.63 92.8199 152.19 92.8199 151.23C92.8199 149.9 93.8999 149.23 95.4599 149.23C96.7199 149.23 97.6499 149.7 97.6499 150.88C97.6499 150.97 97.6499 151.06 97.6399 151.16H96.7299C96.7299 150.43 96.4899 149.93 95.3699 149.93C94.4699 149.93 93.8199 150.27 93.8199 151.16C93.8199 151.69 94.1499 151.87 94.6299 151.95L95.6499 152.11C96.7299 152.27 97.3799 152.73 97.3799 153.73C97.3799 154.92 96.3999 155.73 94.5499 155.73C92.9299 155.73 92.1799 155.02 92.1799 154Z" fill="#89C540"/>
<path d="M98.7099 154.62C98.7099 154.47 98.7199 154.32 98.7599 154.15L99.4699 150.08H98.3999L98.5199 149.35H99.5999L99.9299 147.46H100.93L100.59 149.35H102.09L101.97 150.08H100.47L99.7399 154.17C99.7199 154.27 99.7199 154.36 99.7199 154.44C99.7199 154.83 99.9599 154.92 100.51 154.92L101.13 154.9L101.01 155.6C100.76 155.62 100.48 155.66 100.25 155.66C99.2299 155.66 98.7099 155.41 98.7099 154.62Z" fill="#89C540"/>
<path d="M101.87 153.16C101.87 151.01 103.06 149.24 105.28 149.24C107.1 149.24 107.81 150.57 107.81 151.81C107.81 152.16 107.76 152.46 107.71 152.64H102.88C102.84 152.85 102.84 153.03 102.84 153.2C102.84 154.4 103.47 155.03 104.51 155.03C105.48 155.03 106.18 154.51 106.54 153.71H107.45C107.04 154.96 106.05 155.73 104.45 155.73C102.85 155.73 101.86 154.72 101.86 153.16H101.87ZM103 151.96H106.82C106.83 151.88 106.83 151.8 106.83 151.72C106.83 150.63 106.24 149.94 105.23 149.94C104.15 149.94 103.27 150.61 102.99 151.96H103Z" fill="#89C540"/>
<path d="M115.43 155.6L116.13 151.61C116.15 151.45 116.17 151.28 116.17 151.14C116.17 150.51 115.9 150.05 115.2 150.05C114.36 150.05 113.64 150.73 113.43 151.97L112.79 155.6H111.83L112.52 151.61C112.56 151.44 112.57 151.27 112.57 151.14C112.57 150.52 112.3 150.05 111.61 150.05C110.77 150.05 110.07 150.73 109.86 151.97L109.23 155.6H108.26L109.35 149.35H110.31L110.13 150.36C110.5 149.69 111.18 149.23 111.91 149.23C112.89 149.23 113.41 149.73 113.56 150.49C114 149.67 114.7 149.23 115.5 149.23C116.54 149.23 117.18 149.86 117.18 150.92C117.18 151.09 117.17 151.27 117.13 151.46L116.4 155.59H115.43V155.6Z" fill="#89C540"/>
<path d="M117.74 154C117.74 153.9 117.75 153.81 117.76 153.71H118.67C118.67 154.61 119.13 155.04 120.19 155.04C121.32 155.04 121.93 154.57 121.93 153.79C121.93 153.26 121.58 153.02 120.93 152.92L119.93 152.76C119 152.63 118.38 152.19 118.38 151.23C118.38 149.9 119.46 149.23 121.02 149.23C122.28 149.23 123.21 149.7 123.21 150.88C123.21 150.97 123.21 151.06 123.2 151.16H122.29C122.29 150.43 122.05 149.93 120.93 149.93C120.03 149.93 119.38 150.27 119.38 151.16C119.38 151.69 119.71 151.87 120.19 151.95L121.21 152.11C122.29 152.27 122.94 152.73 122.94 153.73C122.94 154.92 121.96 155.73 120.11 155.73C118.49 155.73 117.74 155.02 117.74 154Z" fill="#89C540"/>
<path d="M123.57 155.18C123.57 154.81 123.84 154.51 124.31 154.51C124.68 154.51 124.9 154.73 124.9 155.01C124.9 155.4 124.63 155.68 124.16 155.68C123.8 155.68 123.57 155.46 123.57 155.18Z" fill="#89C540"/>
<path d="M134.74 151.54C135.46 151.73 135.84 152.21 135.84 152.91C135.84 153.06 135.83 153.19 135.8 153.35L135.56 154.74C135.52 154.95 135.51 155.15 135.51 155.31C135.51 155.43 135.52 155.53 135.53 155.61H134.56C134.51 155.46 134.47 155.3 134.47 155.1C134.47 154.99 134.48 154.87 134.51 154.74L134.75 153.37C134.77 153.22 134.79 153.08 134.79 152.96C134.79 152.19 134.23 151.91 133.34 151.91H130.72L130.08 155.61H129.04L130.55 146.99H134.07C135.64 146.99 136.62 147.63 136.62 148.96C136.62 150.39 136.01 151.19 134.73 151.54H134.74ZM133.77 147.79H131.46L130.87 151.11H133.42C134.87 151.11 135.58 150.47 135.58 149.1C135.58 148.12 134.97 147.79 133.78 147.79H133.77Z" fill="#89C540"/>
<path d="M136.95 153.16C136.95 151.01 138.14 149.24 140.36 149.24C142.18 149.24 142.89 150.57 142.89 151.81C142.89 152.16 142.84 152.46 142.79 152.64H137.96C137.92 152.85 137.92 153.03 137.92 153.2C137.92 154.4 138.55 155.03 139.59 155.03C140.56 155.03 141.26 154.51 141.62 153.71H142.53C142.12 154.96 141.13 155.73 139.53 155.73C137.93 155.73 136.94 154.72 136.94 153.16H136.95ZM138.08 151.96H141.9C141.91 151.88 141.91 151.8 141.91 151.72C141.91 150.63 141.32 149.94 140.31 149.94C139.23 149.94 138.35 150.61 138.07 151.96H138.08Z" fill="#89C540"/>
<path d="M143.4 154.03C143.4 152.82 144.11 152.23 145.57 152.09L147.08 151.97C147.78 151.91 148.23 151.73 148.23 151.03C148.23 150.36 147.71 149.96 146.86 149.96C145.88 149.96 145.3 150.38 145.17 151.25H144.2C144.3 149.98 145.19 149.23 146.93 149.23C148.3 149.23 149.22 149.82 149.22 150.95C149.22 151.08 149.21 151.23 149.2 151.35L148.73 154C148.63 154.52 148.58 154.92 148.58 155.2C148.58 155.38 148.6 155.51 148.64 155.6H147.76C147.66 155.45 147.63 155.26 147.63 155.07C147.63 154.92 147.64 154.76 147.68 154.56C147.21 155.31 146.49 155.72 145.42 155.72C144.23 155.72 143.41 155.1 143.41 154.03H143.4ZM147.9 153L148.02 152.26C147.85 152.47 147.49 152.56 146.95 152.61L145.74 152.72C144.81 152.79 144.4 153.22 144.4 153.94C144.4 154.59 144.9 155.02 145.7 155.02C146.91 155.02 147.71 154.17 147.9 153Z" fill="#89C540"/>
<path d="M149.73 155.6L151.24 146.98H152.25L150.74 155.6H149.73Z" fill="#89C540"/>
<path d="M155.3 153.16C155.3 150.86 156.61 149.24 158.78 149.24C160.41 149.24 161.38 150.22 161.38 151.81C161.38 154.11 160.07 155.73 157.88 155.73C156.26 155.73 155.29 154.75 155.29 153.16H155.3ZM160.38 151.85C160.38 150.68 159.77 150.01 158.73 150.01C157.19 150.01 156.3 151.35 156.3 153.11C156.3 154.28 156.9 154.95 157.94 154.95C159.48 154.95 160.37 153.61 160.37 151.85H160.38Z" fill="#89C540"/>
<path d="M162.15 154.02C162.15 153.86 162.16 153.67 162.2 153.49L162.93 149.36H163.94L163.24 153.33C163.22 153.5 163.2 153.64 163.2 153.79C163.2 154.53 163.62 154.92 164.4 154.92C165.37 154.92 166.21 154.22 166.43 152.93L167.04 149.36H168.04L166.95 155.61H165.99L166.17 154.61C165.69 155.32 164.93 155.74 164.1 155.74C162.89 155.74 162.15 155.16 162.15 154.03V154.02Z" fill="#89C540"/>
<path d="M168.98 154.62C168.98 154.47 168.99 154.32 169.03 154.15L169.74 150.08H168.68L168.8 149.35H169.88L170.21 147.46H171.22L170.88 149.35H172.38L172.26 150.08H170.76L170.03 154.17C170.01 154.27 170.01 154.36 170.01 154.44C170.01 154.83 170.25 154.92 170.8 154.92L171.42 154.9L171.3 155.6C171.04 155.62 170.77 155.66 170.54 155.66C169.52 155.66 169 155.41 169 154.62H168.98Z" fill="#89C540"/>
<path d="M172.14 153.16C172.14 150.86 173.4 149.24 175.55 149.24C177.18 149.24 178.01 150.28 178.01 151.3C178.01 151.39 178 151.48 177.99 151.59H177.08C177.08 150.82 176.58 150.02 175.49 150.02C174 150.02 173.14 151.36 173.14 153.12C173.14 154.29 173.74 154.96 174.71 154.96C175.79 154.96 176.52 154.37 176.83 153.34H177.74C177.51 154.68 176.51 155.74 174.65 155.74C173.1 155.74 172.13 154.76 172.13 153.17L172.14 153.16Z" fill="#89C540"/>
<path d="M178.46 153.16C178.46 150.86 179.77 149.24 181.95 149.24C183.58 149.24 184.55 150.22 184.55 151.81C184.55 154.11 183.24 155.73 181.05 155.73C179.43 155.73 178.46 154.75 178.46 153.16ZM183.54 151.85C183.54 150.68 182.94 150.01 181.89 150.01C180.35 150.01 179.46 151.35 179.46 153.11C179.46 154.28 180.06 154.95 181.11 154.95C182.65 154.95 183.54 153.61 183.54 151.85Z" fill="#89C540"/>
<path d="M192.16 155.6L192.86 151.61C192.88 151.45 192.9 151.28 192.9 151.14C192.9 150.51 192.63 150.05 191.93 150.05C191.1 150.05 190.37 150.73 190.16 151.97L189.52 155.6H188.56L189.25 151.61C189.29 151.44 189.3 151.27 189.3 151.14C189.3 150.52 189.03 150.05 188.34 150.05C187.51 150.05 186.8 150.73 186.59 151.97L185.96 155.6H184.99L186.08 149.35H187.04L186.86 150.36C187.24 149.69 187.91 149.23 188.64 149.23C189.62 149.23 190.14 149.73 190.28 150.49C190.72 149.67 191.42 149.23 192.22 149.23C193.26 149.23 193.9 149.86 193.9 150.92C193.9 151.09 193.89 151.27 193.85 151.46L193.12 155.59H192.15L192.16 155.6Z" fill="#89C540"/>
<path d="M194.67 153.16C194.67 151.01 195.86 149.24 198.08 149.24C199.9 149.24 200.61 150.57 200.61 151.81C200.61 152.16 200.56 152.46 200.51 152.64H195.68C195.64 152.85 195.64 153.03 195.64 153.2C195.64 154.4 196.27 155.03 197.31 155.03C198.28 155.03 198.98 154.51 199.34 153.71H200.25C199.84 154.96 198.85 155.73 197.25 155.73C195.65 155.73 194.66 154.72 194.66 153.16H194.67ZM195.8 151.96H199.62C199.63 151.88 199.63 151.8 199.63 151.72C199.63 150.63 199.04 149.94 198.03 149.94C196.95 149.94 196.07 150.61 195.79 151.96H195.8Z" fill="#89C540"/>
<path d="M201.12 154C201.12 153.9 201.13 153.81 201.14 153.71H202.05C202.05 154.61 202.51 155.04 203.58 155.04C204.71 155.04 205.32 154.57 205.32 153.79C205.32 153.26 204.97 153.02 204.31 152.92L203.3 152.76C202.37 152.63 201.75 152.19 201.75 151.23C201.75 149.9 202.83 149.23 204.39 149.23C205.65 149.23 206.58 149.7 206.58 150.88C206.58 150.97 206.58 151.06 206.57 151.16H205.66C205.66 150.43 205.42 149.93 204.3 149.93C203.41 149.93 202.75 150.27 202.75 151.16C202.75 151.69 203.08 151.87 203.56 151.95L204.58 152.11C205.66 152.27 206.31 152.73 206.31 153.73C206.31 154.92 205.33 155.73 203.48 155.73C201.86 155.73 201.11 155.02 201.11 154H201.12Z" fill="#89C540"/>
<path d="M206.94 155.18C206.94 154.81 207.21 154.51 207.68 154.51C208.05 154.51 208.27 154.73 208.27 155.01C208.27 155.4 208 155.68 207.53 155.68C207.17 155.68 206.94 155.46 206.94 155.18Z" fill="#89C540"/>
<path d="M123.55 87.28L132.95 97.81C129.45 98.86 125.74 99.42 121.92 99.42C100.48 99.42 83.04 81.98 83.04 60.54V56.05C86.38 60.2 90.61 63.2801 95.54 65.2101C97.73 77.7701 108.73 87.34 121.92 87.34C122.46 87.34 123.01 87.32 123.55 87.28Z" fill="#89C540"/>
<path d="M148.71 39V38.9C148.71 24.12 136.69 12.1 121.91 12.1C114.18 12.1 106.45 15.42 101.23 21C96.8999 25.65 94.7099 31.43 95.1099 37.31C95.1299 37.53 95.2499 38.36 96.1199 39.63C100.63 46.11 108.28 48.91 118.25 47.72C119.94 47.52 121.63 47.28 123.3 47.08C137.49 45.21 152.19 43.27 159.14 55.29C159.9 56.6 160.81 60 160.77 61.45C160.75 62.17 160.73 62.86 160.67 63.56C159.8 74.73 154.17 84.56 145.85 91.08L137.9 82.2C144.2 77.71 148.49 70.68 148.63 62.63C148.65 61.54 146.64 59.11 145.43 58.66C141.34 57.13 134.46 57.77 124.87 59.04C123.16 59.26 121.43 59.48 119.68 59.68C105.2 61.41 93.3299 56.74 86.1999 46.49C84.3499 43.81 83.2599 40.91 83.0799 38.09C82.4599 28.85 85.7599 19.85 92.4199 12.72C99.8699 4.75 110.9 0 121.92 0C143.34 0 160.8 17.44 160.8 38.88V45.64C157.64 42.22 152.87 39.98 148.72 38.98L148.71 39Z" fill="white"/>
<path d="M145.55 106.15L116.66 74.61L131.87 75.2L159.56 106.2L145.55 106.15Z" fill="white"/>
</svg>
